name C:/MyDriveSym/Projects/mobilecap/Data\Session20210823_0001\mocap\ForceDataProcessed\static1_forces.mot
datacolumns 28
datarows 11
range 0.66200000 0.66700000
endheader 
time	R_ground_force_vx	R_ground_force_vy	R_ground_force_vz	R_ground_force_px	R_ground_force_py	R_ground_force_pz	R_ground_torque_x	R_ground_torque_y	R_ground_torque_z	L_ground_force_vx	L_ground_force_vy	L_ground_force_vz	L_ground_force_px	L_ground_force_py	L_ground_force_pz	L_ground_torque_x	L_ground_torque_y	L_ground_torque_z	3_ground_force_vx	3_ground_force_vy	3_ground_force_vz	3_ground_force_px	3_ground_force_py	3_ground_force_pz	3_ground_torque_x	3_ground_torque_y	3_ground_torque_z	
          0.66200000	          2.50883600	        285.78904000	        -25.35435300	         -0.23217600	          0.00600000	         -0.39466400	          0.00000000	         -0.83550800	          0.00000000	         -3.29867000	        326.92167100	         25.56140000	         -0.20348600	          0.00600000	         -0.71802800	          0.00000000	          1.37188800	          0.00000000	          0.00000000	          0.00000000	          0.00000000	          0.00000000	          0.00000000	          0.00000000	          0.00000000	          0.00000000	          0.00000000	
          0.66250000	          2.50914600	        285.78770300	        -25.35402400	         -0.23218700	          0.00600000	         -0.39467100	          0.00000000	         -0.83589000	          0.00000000	         -3.29815600	        326.93247300	         25.55760900	         -0.20349500	          0.00600000	         -0.71803800	          0.00000000	          1.37150000	          0.00000000	          0.00000000	          0.00000000	          0.00000000	          0.00000000	          0.00000000	          0.00000000	          0.00000000	          0.00000000	          0.00000000	
          0.66300000	          2.50939700	        285.78676500	        -25.35348900	         -0.23219800	          0.00600000	         -0.39467700	          0.00000000	         -0.83627100	          0.00000000	         -3.29767700	        326.94286200	         25.55435100	         -0.20350300	          0.00600000	         -0.71804800	          0.00000000	          1.37121200	          0.00000000	          0.00000000	          0.00000000	          0.00000000	          0.00000000	          0.00000000	          0.00000000	          0.00000000	          0.00000000	          0.00000000	
          0.66350000	          2.50963900	        285.78635300	        -25.35277000	         -0.23220900	          0.00600000	         -0.39468300	          0.00000000	         -0.83663700	          0.00000000	         -3.29723900	        326.95278100	         25.55168000	         -0.20350900	          0.00600000	         -0.71805700	          0.00000000	          1.37101000	          0.00000000	          0.00000000	          0.00000000	          0.00000000	          0.00000000	          0.00000000	          0.00000000	          0.00000000	          0.00000000	          0.00000000	
          0.66400000	          2.50992500	        285.78657200	        -25.35188600	         -0.23222100	          0.00600000	         -0.39468800	          0.00000000	         -0.83697400	          0.00000000	         -3.29683700	        326.96216400	         25.54964600	         -0.20351600	          0.00600000	         -0.71806600	          0.00000000	          1.37088100	          0.00000000	          0.00000000	          0.00000000	          0.00000000	          0.00000000	          0.00000000	          0.00000000	          0.00000000	          0.00000000	          0.00000000	
          0.66450000	          2.51030000	        285.78748100	        -25.35084800	         -0.23223300	          0.00600000	         -0.39469200	          0.00000000	         -0.83726600	          0.00000000	         -3.29646200	        326.97094700	         25.54829000	         -0.20352100	          0.00600000	         -0.71807500	          0.00000000	          1.37080800	          0.00000000	          0.00000000	          0.00000000	          0.00000000	          0.00000000	          0.00000000	          0.00000000	          0.00000000	          0.00000000	          0.00000000	
          0.66500000	          2.51080600	        285.78909200	        -25.34966500	         -0.23224500	          0.00600000	         -0.39469500	          0.00000000	         -0.83749600	          0.00000000	         -3.29610700	        326.97906400	         25.54763900	         -0.20352500	          0.00600000	         -0.71808300	          0.00000000	          1.37077600	          0.00000000	          0.00000000	          0.00000000	          0.00000000	          0.00000000	          0.00000000	          0.00000000	          0.00000000	          0.00000000	          0.00000000	
          0.66550000	          2.51148300	        285.79138400	        -25.34834100	         -0.23225800	          0.00600000	         -0.39469700	          0.00000000	         -0.83765000	          0.00000000	         -3.29576900	        326.98645900	         25.54770700	         -0.20352800	          0.00600000	         -0.71808900	          0.00000000	          1.37076600	          0.00000000	          0.00000000	          0.00000000	          0.00000000	          0.00000000	          0.00000000	          0.00000000	          0.00000000	          0.00000000	          0.00000000	
          0.66600000	          2.51237100	        285.79432100	        -25.34687300	         -0.23227100	          0.00600000	         -0.39469700	          0.00000000	         -0.83771900	          0.00000000	         -3.29544400	        326.99308100	         25.54850100	         -0.20353000	          0.00600000	         -0.71809500	          0.00000000	          1.37075400	          0.00000000	          0.00000000	          0.00000000	          0.00000000	          0.00000000	          0.00000000	          0.00000000	          0.00000000	          0.00000000	          0.00000000	
          0.66650000	          2.51350100	        285.79786000	        -25.34525800	         -0.23228400	          0.00600000	         -0.39469700	          0.00000000	         -0.83769700	          0.00000000	         -3.29512900	        326.99888400	         25.55002200	         -0.20353200	          0.00600000	         -0.71810000	          0.00000000	          1.37071800	          0.00000000	          0.00000000	          0.00000000	          0.00000000	          0.00000000	          0.00000000	          0.00000000	          0.00000000	          0.00000000	          0.00000000	
          0.66700000	          2.51489200	        285.80195000	        -25.34348800	         -0.23229700	          0.00600000	         -0.39469600	          0.00000000	         -0.83758100	          0.00000000	         -3.29482700	        327.00383800	         25.55226300	         -0.20353200	          0.00600000	         -0.71810300	          0.00000000	          1.37064200	          0.00000000	          0.00000000	          0.00000000	          0.00000000	          0.00000000	          0.00000000	          0.00000000	          0.00000000	          0.00000000	          0.00000000	
